<?xml version="1.0" encoding="UTF-8"?>
<svg id="Layer_1" xmlns="http://www.w3.org/2000/svg" version="1.1" viewBox="0 0 948.99 317.67">
  <!-- Generator: Adobe Illustrator 29.2.0, SVG Export Plug-In . SVG Version: 2.1.0 Build 22)  -->
  <defs>
    <style>
      .st0 {
        fill: #fff;
      }
    </style>
  </defs>
  <path class="st0" d="M285.2,131.97c-2.79-4.53-3.66-9.69-2.9-14.57.94-5.99,4.4-11.54,9.97-14.97,10.1-6.21,23.33-3.05,29.53,7.07,2.93,4.77,3.74,10.21,2.77,15.31-1.11,5.71-4.49,10.95-9.83,14.23-10.12,6.21-23.34,3.04-29.55-7.07Z"/>
  <path class="st0" d="M324.57,124.81c-1.11,5.71-4.49,10.95-9.83,14.23-10.12,6.21-23.34,3.04-29.55-7.07-2.79-4.53-3.66-9.69-2.9-14.57.94-5.99,4.4-11.54,9.97-14.97,10.1-6.21,23.33-3.05,29.53,7.07,2.93,4.77,3.74,10.21,2.77,15.31Z"/>
  <g>
    <path class="st0" d="M427.18,83.51v6.31s12.28.02,12.28.02l-.04,32.42h6.87s.03-32.42.03-32.42l12.29.02v-6.31l-31.43-.04Z"/>
    <path class="st0" d="M488.19,107.65c1.36-.36,2.61-.89,3.74-1.57,1.12-.68,2.09-1.51,2.91-2.49.81-.97,1.45-2.1,1.91-3.37.46-1.27.7-2.72.7-4.34,0-1.88-.33-3.59-1-5.12-.66-1.53-1.61-2.83-2.84-3.88-1.24-1.05-2.75-1.86-4.54-2.44-1.79-.57-3.79-.86-6-.86l-17.27-.02-.04,38.73h6.75s.02-13.49.02-13.49h8.54s9.54,13.52,9.54,13.52h8.02s-10.44-14.67-10.44-14.67ZM472.53,102.77l.02-13.06h9.94c2.55.01,4.53.56,5.93,1.66,1.41,1.09,2.11,2.71,2.11,4.86-.01,2-.73,3.59-2.17,4.78-1.45,1.18-3.39,1.77-5.83,1.77h-10Z"/>
    <path class="st0" d="M525.85,83.35h-6.31s-17.09,38.98-17.09,38.98h6.97s4-9.33,4-9.33l18.31.02,3.92,9.35h7.2s-17-39.02-17-39.02ZM515.91,106.97l6.66-15.49,6.68,15.5h-13.34Z"/>
    <path class="st0" d="M576.53,83.68l-.03,26.78-20.67-26.8h-6.3s-.04,38.73-.04,38.73h6.75s.03-27.55.03-27.55l21.29,27.58h5.69s.04-38.73.04-38.73h-6.76Z"/>
    <path class="st0" d="M619.81,107.17c-.54-1.2-1.32-2.26-2.35-3.16-1.04-.91-2.34-1.67-3.91-2.3-1.57-.63-3.38-1.2-5.41-1.72-1.85-.45-3.38-.87-4.58-1.28-1.2-.41-2.14-.85-2.82-1.33-.69-.48-1.16-1-1.42-1.55-.25-.56-.39-1.22-.38-1.99,0-1.3.55-2.39,1.66-3.3,1.11-.9,2.66-1.35,4.65-1.35,1.77.01,3.53.35,5.26,1.03,1.73.69,3.48,1.68,5.25,2.97l3.66-5.14c-1.99-1.59-4.12-2.8-6.39-3.64-2.27-.83-4.82-1.25-7.66-1.25-1.92,0-3.69.26-5.31.8-1.62.53-3.01,1.29-4.16,2.29-1.16.99-2.06,2.18-2.72,3.57-.66,1.38-.99,2.92-1,4.62,0,1.8.29,3.34.86,4.59.57,1.25,1.4,2.33,2.49,3.21,1.1.89,2.44,1.63,4.05,2.22,1.61.59,3.45,1.13,5.52,1.61,1.81.44,3.28.87,4.41,1.28,1.13.41,2.02.84,2.66,1.3.64.47,1.09.97,1.33,1.53.24.55.36,1.18.36,1.88,0,1.51-.62,2.71-1.86,3.59-1.24.89-2.91,1.33-5.01,1.32-2.44,0-4.61-.44-6.53-1.3-1.91-.87-3.81-2.12-5.69-3.75l-4.1,4.87c2.32,2.11,4.84,3.67,7.57,4.68,2.73,1.02,5.59,1.53,8.58,1.54,2.03,0,3.89-.26,5.58-.77,1.7-.52,3.15-1.27,4.35-2.27,1.22-.99,2.16-2.21,2.84-3.64.68-1.44,1.02-3.08,1.02-4.93,0-1.62-.26-3.03-.8-4.23Z"/>
    <path class="st0" d="M652.85,83.77l-10.98,17.14-10.82-17.17h-8.03s15.36,23.47,15.36,23.47l-.02,15.28h6.87s.01-15.43.01-15.43l15.41-23.29h-7.8Z"/>
    <path class="st0" d="M673.34,116.38l.03-32.59h-6.75s-.04,38.73-.04,38.73l27.12.03v-6.14l-20.36-.03Z"/>
    <path class="st0" d="M722.02,83.84l-11.65,29.77-11.65-29.79h-7.52s16.06,39.02,16.06,39.02h5.98s16.14-38.99,16.14-38.99h-7.36Z"/>
    <path class="st0" d="M750.52,83.6h-6.31s-17.08,38.99-17.08,38.99h6.97s3.99-9.34,3.99-9.34l18.32.02,3.92,9.36h7.19s-17-39.03-17-39.03ZM740.59,107.22l6.66-15.49,6.67,15.51-13.33-.02Z"/>
    <path class="st0" d="M801.21,83.94l-.03,26.78-20.68-26.81h-6.29l-.04,38.73h6.74s.03-27.55.03-27.55l21.29,27.58h5.69s.04-38.73.04-38.73h-6.75Z"/>
    <path class="st0" d="M818.31,83.96l-.04,38.73h6.75s.04-38.73.04-38.73h-6.75Z"/>
    <path class="st0" d="M855.5,83.72h-6.31s-17.09,38.99-17.09,38.99h6.98l3.99-9.34,18.31.02,3.92,9.36h7.2s-17-39.03-17-39.03ZM845.57,107.34l6.66-15.49,6.67,15.51-13.33-.02Z"/>
  </g>
  <path class="st0" d="M472.8,156.3l-5.37,28.37h.01l-4.31,22.78-.56,2.92-1.86,9.87-.4,2.08-1.89,10.06h-.01l-1.51,7.98-.43,2.31-1.49,7.82-1.74,9.22-.4,2.09-2.35,12.41-.02.09-2.5,13.18-.78,4.18-1.8,9.52h-9.85s0,0,0,0h-14.94v-.02l-16.26-.02,3.25-17.13,1.4-7.33,2.21-11.73h0s2.42-12.78,2.42-12.78l.4-2.07h-.01l2.88-15.22.28-1.51,1.26-6.65.59-3.07h-.01l4.54-24.03h.01l.2-1.08,6.73-35.54,1.49-7.87.24-1.27h41.05l-.47,2.44Z"/>
  <path class="st0" d="M184.48,48.75c-.37-5.91-2.35-10.84-5.62-14.86-4.06-5.01-9.91-8.64-17.65-10.85l-9.41-1.96-6.62-.42-.02-.02c-.13,0-.26-.01-.39-.01l-4.93-.13-16.65-.08-12.18.05-46.09-.05-4.7,24.78v.02l-.12.66-.26,1.38-6.59,34.86-.74,3.91-15.63,82.6,76.45.08c5.23.01,10.16-.37,14.86-1.03,3.09-3.14,6.55-5.94,10.38-8.29,5.8-3.56,12.18-5.96,18.79-7.14v-.03l7.34-.76c2.09-2.08,3.93-4.34,5.55-6.74.01,0,.04-.01.04-.01l.28-.47c.17-.26.35-.51.52-.77l-.07.05.16-.24h.02c.15-.24.29-.49.44-.73l.15-.26.02-.03c2.21-3.79,3.85-7.96,4.9-12.44l.66-3.14h.01c.01-.08.02-.15.03-.23l.02-.11v-.04c.98-5.86.81-10.87-.39-15.13l-1.37-3.61c-3.57-7.73-10.97-12.78-21-16.32,10.45-4.18,19.52-10.8,24.87-20.82l1.18-2.39c1.34-2.99,2.4-6.23,3.08-9.78l.08-.43c.17-.93.28-1.83.38-2.73l.19-1.79.03-.52v-.21c.06-.88.09-1.76.07-2.59l-.07-1.23ZM106.05,168.65c-.13,0-.25-.03-.37-.09l.64.02c-.07.04-.17.07-.27.07ZM137.26,121.72l-.08.43c-1.65,8.67-9.76,13.54-22.25,13.53l-10.41-.02h-9.53s-11.85-.03-11.85-.03l5.18-27.3,31.34.03c8.2.02,13.41,1.91,15.96,5.14l.56.8c1.27,2.05,1.61,4.56,1.08,7.42ZM141.61,66.25l-.08.42c-1.64,8.69-9.44,12.91-21.93,12.9h-2.9s-4.75-.01-4.75-.01l-18.19-.03,4.93-26.04,26.69.04c12.28.01,17.75,4.66,16.23,12.72Z"/>
  <path class="st0" d="M619.66,181.24l-2.08-2.88s.08.02.11.04c-.4-.55-.82-1.09-1.26-1.63l-.09-.11h-.01c-3.69-4.56-8.25-8.52-13.67-11.8l-3.59-1.97-.11-.11c-.92-.47-1.86-.92-2.83-1.36h-.02s-2.71-1.17-2.71-1.17l-15.92-4.52c-4.59-.83-9.46-1.39-14.65-1.63l-6.12-.13s-.04-.01-.05-.01h-.48l-2.55-.06h-53.4l-.27,1.48-2.01,10.63-4.68,24.76-1.1,5.8-1.09,5.81h-.01l-.2,1.06-3.16,16.71-.14.74-2.28,12.04-.09.5-.3,1.55-.69,3.64-7.99,42.26-3.06,16.17-.78,4.14h16.81c.07.02.15.03.22.06l24.21.02s.06-.02.09-.02l1.41.02,13.24.02c8.78.01,17.12-.86,24.96-2.5l7.46-1.79c3.83-1.09,7.51-2.37,11.06-3.82l5.29-2.5c.07,0,.14.04.2.06.03,0,.04-.01.06-.02-.06-.03-.1-.06-.15-.09l3.06-1.45s.06.02.1.03c.27-.15.52-.31.79-.46l.3-.13.08-.07c11.74-6.4,21.53-14.98,29.07-25.13v.03s.47-.66.47-.66c.14-.2.3-.38.44-.59l.06-.13,1.83-2.59c1.36-2.09,2.64-4.22,3.82-6.41l1.19-2.31c2.89-5.7,5.13-11.76,6.73-18.09l.58-2.43c.23-.98.44-1.95.63-2.94l.07-.42c.1-.49.16-.95.24-1.43l.41-2.88s.04.01.05.01c.1-.72.18-1.43.26-2.13l.03-.28h0c1.66-15.02-1.03-28.29-7.79-38.93ZM585.22,220.49l-.11,2.2c-.11,1.07-.27,2.18-.45,3.29l-.29,1.91s-.01.06-.02.09l-.71,2.89c-2.03,8.14-5.8,14.97-10.96,20.31l-2.62,2.51c-8.54,7.42-20.11,11.42-33.37,11.39h-16.62s1.19-6.34,1.19-6.34l12.98-68.6,16.18.02,5,.21c11.18.85,19.69,4.89,24.7,11.65l1.21,1.82c1.4,2.3,2.48,4.84,3.14,7.67l.36,2.14c.34,2.14.48,4.42.39,6.84Z"/>
  <path class="st0" d="M896.89,232.01c-.39-.6-.78-1.2-1.2-1.78l-1.77-2.23c-2.24-2.49-5.04-4.68-8.26-6.66v-.03s-.58-.34-.58-.34l-.76-.48c-7.84-4.5-18.17-7.82-30.43-10.61-19.55-4.65-24.04-7.6-22.76-14.33l.07-.43c.16-.81.45-1.58.83-2.33l1.44-2.1c2.63-2.98,7.4-5.04,14.26-5.03l4.02.19c6.73.53,13.56,2.35,20.13,5.4l14.33,8.91.9-.9,1-1.1.31-.35,23.71-26.39c-13.57-12.87-31.87-19.62-56.93-19.65-8.68-.01-16.75,1.18-24.08,3.38l-3.6,1.23c-1.88.67-3.71,1.41-5.48,2.22h-.01s-2.1.96-2.1.96c-1.96.97-3.81,2.07-5.61,3.22h-.02s-.08.07-.08.07c-.03.02-.06.04-.09.05h0s-1.17.78-1.17.78c-4.14,2.77-7.83,5.97-11.01,9.53h0s-.02.02-.02.02c0,0,0,0-.01.01h0s-.35.41-.35.41c-6.24,7.16-10.53,15.7-12.33,25.21l-.08.42c-5.73,30.31,16.8,39.17,46.82,46.36,19.13,4.66,23.34,8.03,22.18,14.14l-.09.42c-1.18,6.31-7.8,10.09-18.76,10.08-15.17-.01-28.74-4.89-40.25-14.13l-.79-.68c-1.15-.94-2.29-1.88-3.39-2.92l-23.29,22.66-1.54,1.5-3.03,2.95c8.87,9.6,20.65,16.36,34.15,20.33l.23.07c9.32,2.7,19.44,4.1,30.05,4.11,6.31,0,12.33-.58,18.03-1.65l3.39-.74c19.62-4.53,34.82-15.51,42.58-31.58h0s.13-.27.13-.27c.01-.03.03-.06.05-.09h0s.93-2,.93-2c1.54-3.64,2.76-7.49,3.53-11.6l.09-.43c.08-.44.1-.85.17-1.28l.36-2.54c.74-6.67-.05-12.31-2.24-17.1l-1.57-2.88Z"/>
  <path class="st0" d="M410.11,106.3l-.18-1.67c-.35-2.79-.81-5.58-1.38-8.35l-.37-1.82c-.69-3.1-1.54-6.18-2.54-9.25l-.81-2.33c-.57-1.62-1.18-3.23-1.83-4.83l-.72-1.77-1.1-2.44c-1.76-3.82-3.74-7.6-6-11.29-4.37-7.11-9.46-13.5-15.1-19.18l-1.99-1.97c-.18-.17-.37-.34-.57-.51l-3.63-3.27c-3.55-3.04-7.28-5.84-11.16-8.35l-10.56-5.99c-.31-.14-.59-.28-.88-.42l-2.25-1.07h0c-.13-.07-.26-.12-.39-.18l-.2-.09-.05-.02c-14.04-6.26-29.34-9.39-44.78-9.15l-7.09.36c-.33.02-.65.05-.96.08l-3.38.37c-4.97.62-9.91,1.61-14.8,2.96l-5.57,1.71-1.49.5c-.33.11-.66.22-.99.34l-2.42.95c-.5.19-1,.37-1.49.58l-1.09.44c-1.65.71-3.3,1.47-4.93,2.27l-.13.06-.07.04s-.05.03-.08.04h0s-1.07.54-1.07.54c-.09.05-.18.09-.26.14l-1.46.75c-.19.1-.4.19-.59.3l-3.01,1.69c-.81.48-1.62.92-2.43,1.42-1.08.66-2.08,1.38-3.12,2.08l-.47.33h0c-5.3,3.55-10.22,7.47-14.68,11.76l-1.4,1.33c-.64.65-1.23,1.33-1.85,1.99l-.56.59c-2.08,2.22-4.04,4.52-5.89,6.89l-2.79,3.69c-.69.98-1.35,1.97-2.01,2.97l-1.04,1.55c-2.81,4.44-5.26,9.08-7.33,13.88l-.85,2.44-1,3.27-.54,1.78-1.36,4.43-.35,1.16-3.42,11.19-.9,2.98-2.55,8.32-2.65,8.7-8.96,29.34c5.67,1.69,11.06,4.31,15.94,7.81.02.01.05.03.07.05,2.38,1.51,4.66,3.21,6.82,5.08l2.06,1.87c1,.96,1.96,1.96,2.9,3l1.15,1.32c.08.09.16.18.23.27.06.06.11.12.17.19,1.16,1.4,2.26,2.86,3.3,4.38l1.82,2.84c.09.15.17.3.25.44l.57.96c.1.18.2.35.29.53l1.88,3.73c1.4,3,2.5,6.06,3.32,9.17l.65,2.67c.93,4.24,1.37,8.54,1.33,12.82l-.07,2.48c-.18,3.55-.68,7.07-1.51,10.51-3.45,14.49-12.41,27.63-26.09,36.03-12.76,7.84-27.37,10.11-41.02,7.53,0,0-.01.01-.02,0-1.76-.33-3.51-.74-5.22-1.23h-.01c-.19-.06-.39-.11-.58-.18-.44-.12-.89-.26-1.32-.4-.94-.31-1.87-.62-2.79-.98h-.01c-11.39-4.32-21.52-12.22-28.49-23.31-.01-.01-.02-.02-.02-.03-.5-.73-.99-1.46-1.45-2.22-.12-.22-.23-.44-.36-.65l-1-1.82-2.22-4.55c-3.94-9.21-5.32-19.39-3.81-29.39.76-4.99,2.19-9.79,4.22-14.29l-50.27-.06c-3.91,24.07.42,49.6,14.17,71.99,13.93,22.7,35.09,38.24,58.7,45.51,3.62,1.12,7.3,2.03,11.02,2.76l.33.06c13.16,2.52,26.81,2.52,40.2-.12l2.75-.56c.28-.06.57-.14.84-.2l.93-.24c5-1.21,9.94-2.79,14.8-4.78l2.98-1.31s0,0,0,0c.02-.01.06-.02.09-.05l3.78-1.78c2.86-1.41,5.68-2.93,8.45-4.63,22.32-13.71,37.69-34.38,45.13-57.49l.43-1.35c.6-1.93,1.15-3.88,1.62-5.84l.19-.77c.27-1.18.52-2.37.76-3.57l.53-2.86c1.25-7.22,1.74-14.57,1.46-21.94l-.3-5c-.03-.43-.08-.86-.11-1.29l-.29-2.52s0,0,0,0c0-.03,0-.07-.01-.1v-.05s0,0,0,0c-.11-.86-.23-1.72-.35-2.58h0s0-.03,0-.03c0-.05-.01-.1-.02-.15,0,0,0,0,0,0l-.48-2.94c-.45-2.49-.99-4.97-1.61-7.43l-.03-.14-.02-.07s-.01-.05-.02-.08c0,0,0,0,0,0l-.7-2.52c-.02-.09-.05-.19-.08-.28l-1-.92c-.95-.62-1.89-1.29-2.81-1.99l-1.75-1.36c-4.96-4.01-9.33-8.93-12.84-14.67-1.13-1.85-2.16-3.72-3.04-5.64l-1.29-2.95c-.13-.27-.23-.53-.33-.81l-1.06-3.01c-.73-2.19-1.3-4.4-1.72-6.64l-.59-3.48c-.64-4.79-.67-9.62-.12-14.36,1.02-8.88,4.06-17.5,8.98-25.09l1.18-1.77h.01c1.28-1.83,2.68-3.6,4.2-5.29l3.12-3.22c1.4-1.34,2.87-2.63,4.44-3.85l4.08-2.98-.27.27c.5-.34,1.01-.66,1.52-.98,2.15-1.32,4.36-2.47,6.61-3.48l3.41-1.41,3.57-1.2c10.84-3.28,22.23-3.2,32.8-.16,1.26.36,2.51.77,3.73,1.21.02.01.05.02.07.02.01,0,.01.01.01.01.39.14.76.27,1.15.42,1.23.48,2.44.99,3.63,1.54.4.18.79.36,1.18.57.4.19.79.39,1.18.6.39.2.77.41,1.16.62.16.09.33.18.49.27.31.18.61.35.91.53,3.82,2.24,7.4,4.92,10.67,8.06l2.3,2.35c2.56,2.76,4.88,5.8,6.92,9.12.07.11.14.22.19.33l.86,1.44c1.7,3.01,3.11,6.12,4.23,9.27l.98,3.05c.08.25.15.5.23.75l.59,2.35c.36,1.52.65,3.05.87,4.58.07.44.14.89.18,1.34.57,4.53.6,9.08.1,13.56l47.93,8.4c.44-2.55.78-5.13,1.06-7.7l.26-2.8c.5-6.43.41-12.92-.3-19.4Z"/>
  <path class="st0" d="M164.75,225.66c5.76,1.86,12.28,1.31,17.84-2.12,5.06-3.1,8.37-7.97,9.66-13.33,1.27-5.33.51-11.17-2.59-16.2-2.92-4.75-7.4-7.95-12.37-9.38-5.61-1.6-11.82-.98-17.18,2.31-5.86,3.6-9.35,9.55-10.09,15.89-.52,4.6.41,9.41,3.02,13.65,2.79,4.55,7,7.68,11.71,9.19Z"/>
  <path class="st0" d="M328.9,194.54c.95-5.04,6.2-9.05,15.3-9.38l.47-.03c.26,0,.5-.05.76-.03.19,0,.39.02.57.02l3.93.18c3.32.3,6.66.91,9.98,1.83l.06.02c7.41,2.06,14.72,5.64,21.45,10.61,6.23-6.83,11.54-14.44,15.87-22.59l.71-1.33c.17-.33.33-.67.5-1l.51-1.07c1.13-2.31,2.2-4.64,3.18-7.03-3.03-1.99-6.06-3.67-9.06-5.14h0s-.07-.04-.07-.04c-.03-.01-.05-.03-.08-.04h0s-1.67-.78-1.67-.78c-13.04-5.96-25.71-7.49-37.95-7.53-3.01,5.07-6.82,9.72-11.38,13.75l-2.39,2c-1.8,1.43-3.71,2.77-5.72,4.01-.22.12-.42.26-.64.37l-1.86,1.07c-8.23,4.53-17.13,6.82-25.98,7.08-5.97.49-10.37-.85-10.37-.85-.05.07-.09.15-.14.22-2.37,3.59-4.29,7.45-5.72,11.54l-.78,2.26c-.01.06-.05.09-.06.14l-.28,1.03c-.42,1.48-.79,2.95-1.08,4.47l-.02.12h0s-.17,1.02-.17,1.02c-1.76,9.99-.41,17.62,3.3,23.6l.18.31c7.43,11.63,23.84,17.04,43.45,21.74,19.13,4.65,23.33,8.03,22.18,14.13l-.08.43c-.59,3.06-2.47,5.51-5.48,7.25l-1.71.81c-.61.26-1.24.5-1.92.71.02,0,.03.01.05.01l-6.93,1.17c-.91.07-1.79.12-2.78.12-17.04-.02-32.09-6.14-44.42-17.73l-7.87-7.49s-.53,2.66-2.12,6.86l-.35.88s0,0,0,0c-2.65,6.76-7.85,16.99-17.52,26.86,2.26,2.44,4.72,4.69,7.34,6.76l3.1,2.33c3.54,2.51,7.35,4.7,11.39,6.59l3.3.9c1.63.45,3.26.92,4.89,1.39l.23.07h0c.59.18,1.18.34,1.77.52l10.97,3.27s-.03,0-.04,0c.06.01.12.02.17.03h0s.01,0,.01,0c.74.15,1.49.29,2.22.43,1.7.33,3.42.67,5.03,1.01.99.2,1.97.43,2.96.65,3.63.34,7.32.53,11.07.54,4.08,0,8.03-.26,11.86-.71.02,0,.04,0,.04,0l1.71-.2c12.3-1.69,23.2-5.7,32.05-11.79l2.02-1.53c4.07-3.06,7.65-6.57,10.68-10.53l1.83-2.48c.77-1.12,1.46-2.29,2.14-3.48l.82-1.38c2.54-4.8,4.41-10.08,5.49-15.79l.09-.43c.1-.54.13-1.03.22-1.57l.28-2,.24-2.77c.02-.45.03-.91.05-1.35l.03-1.13c-.05-5.81-1.46-10.72-4.06-14.93l-3.7-4.77c-7.95-8.27-21.6-13.39-39.34-17.43-3.09-.74-5.79-1.43-8.16-2.1l-.32-.15-.4-.05c-3.1-.9-5.61-1.77-7.58-2.66-.1-.03-.2-.06-.3-.09h0s-4.06-2.61-4.06-2.61c-.65-.6-1.13-1.24-1.46-1.89l-.65-2.77c0-.64.06-1.29.19-2l.07-.43Z"/>
  <path class="st0" d="M774.48,153.86l-5.5,28.8-1.18,6.27-22.69-.02h-11.69s-43.72-.07-43.72-.07l-4.2,22.32,61.24.07h.01s4.4.01,4.4.01c0,0-.01-.01-.02-.01h5.08s-.5,2.65-.5,2.65l-5.59,29.55-70.67-.08-4.39,23.37h7.26l71.79.08-3.55,18.81-.51,2.69-1.54,8.18-.95,5.05-119.58-.14,27.17-143.66.69-3.88h118.64Z"/>
</svg>