<svg id="Layer_1" data-name="Layer 1" xmlns="http://www.w3.org/2000/svg" viewBox="0 0 183.26 98.08"><defs><style>.cls-1{fill:#a30134;}.cls-2,.cls-3{fill:#6d6e71;}.cls-3{fill-rule:evenodd;}.cls-4{fill:none;}</style></defs><title>logo_msg_</title><path class="cls-1" d="M29.65,53a6.45,6.45,0,1,1,6.45,6.45A6.45,6.45,0,0,1,29.65,53"/><path class="cls-2" d="M46.72,29.65V59.31h5.42V34.17H64.53V59.31H70V34.17h8.24C81,34.17,83,35.83,83,39.46V59.31h5.42V38c0-4-2.07-8.31-7.44-8.31H46.72Z"/><path class="cls-2" d="M99.21,29.65c-5.84,0-7.62,3.88-7.62,8.23,0,4.65,1.92,8.56,7.25,8.56h12.88c3.95,0,3.95,3,3.95,4.41s0,3.94-3.85,3.94H92.1v4.52h22c5.48,0,7-3.22,7-8.42,0-6.19-2-9-6.7-9H100.53C97,41.93,97,39.56,97,38c0-1.23.35-3.81,4.11-3.81h19V29.65H99.21Z"/><path class="cls-3" d="M148.21,34.17V54.79H136.86c-3.35,0-6.76.25-6.85-4.09,0-.18,0-1.79,0-6.43,0-4,0-4.89,0-5.3,0.18-3.64,1.53-4.94,7.09-4.81h11.11m5.4-4.51V62c0,4.24-1.63,6.47-6.66,6.47H128.29V63.67h16.93c2.57,0,3-1,3-3.21,0-.24,0-1.15,0-1.15h-13c-5.13,0-6.79-.82-7.8-1.54-1.5-1.26-3-2.73-3-8V39.07c0-5,1.35-6.43,2.79-7.59s3.12-1.82,7.95-1.82h18.4Z"/><path class="cls-4" d="M100.32,0V29.65h5.42V4.51h12.39V29.65h5.44V4.51h8.24c2.79,0,4.75,1.66,4.75,5.29V29.65H142V8.31c0-4-2.07-8.31-7.44-8.31H100.32Z"/><path class="cls-4" d="M153.61,64.1h29.65V58.69H158.12V46.3h25.14V40.86H158.12V32.62c0-2.79,1.66-4.75,5.29-4.75h19.85V22.45H161.91c-4,0-8.31,2.07-8.31,7.44V64.1Z"/><path class="cls-4" d="M100.32,68.42V98.08h5.42V72.93h12.39V98.08h5.44V72.93h8.24c2.79,0,4.75,1.66,4.75,5.29V98.08H142V76.73c0-4-2.07-8.31-7.44-8.31H100.32Z"/><path class="cls-4" d="M0,92.14H29.65V86.73H4.51V74.34H29.65V68.9H4.51V60.66c0-2.79,1.66-4.75,5.29-4.75H29.65V50.49H8.31c-4,0-8.31,2.07-8.31,7.44V92.14Z"/></svg>