<svg id="Layer_1" data-name="Layer 1" xmlns="http://www.w3.org/2000/svg" viewBox="0 0 117.71 28.88"><defs><style>.cls-1{fill:#fff;}</style></defs><path class="cls-1" d="M267.76,395.27V383L247,399.93v11.95l20.76-16.61Zm-17-10.06L247,383v11.51l3.76,2.1v-11.4Z" transform="translate(-247 -383)"/><path class="cls-1" d="M277.61,404.84h5.5l1.7-8,10.39-13.17h-6.65l-5.92,8.82-2.53-8.82h-5.7l4.91,13.19-1.7,8Zm10.11,0h5.81l2.14-3.79h7.47l.51,3.79h5.56l-3.47-21.2h-5.6l-12.42,21.2Zm14.08-15.53h0l.83,7.62H297.8l4-7.62Zm8.71,15.53H316l1.61-7.73h3.7q2.76,0,2.76,2.85c0,.51,0,1.16-.08,2s-.08,1.38-.08,1.72a6.42,6.42,0,0,0,.18,1.19h5.57a5.29,5.29,0,0,1-.32-2.24q0-.59.06-1.86c0-.86.05-1.56.05-2.11,0-2-.72-3.18-2.17-3.54v0q4.84-.69,4.84-5.92,0-3.15-1.95-4.44a9,9,0,0,0-4.88-1.05h-10.4l-4.4,21.2Zm9-16.94h4.09c2,0,3,.74,3,2.2q0,2.92-3.73,2.93h-4.41l1.06-5.13Zm12.64,16.94h9.5q6,0,9.38-3.65a12.26,12.26,0,0,0,3-8.6q0-9-9.45-8.95H336.7l-4.52,21.2Zm9-16.46h3.18q4.2,0,4.2,4.69a8,8,0,0,1-1.31,4.54,5.48,5.48,0,0,1-4.88,2.49h-3.65l2.46-11.72Zm13.54,16.46h5.56l4.41-21.2h-5.52l-4.45,21.2Z" transform="translate(-247 -383)"/></svg>